<?xml version="1.0" encoding="UTF-8" standalone="no"?>
<!DOCTYPE svg PUBLIC "-//W3C//DTD SVG 20010904//EN"
              "http://www.w3.org/TR/2001/REC-SVG-20010904/DTD/svg10.dtd">

<svg xmlns="http://www.w3.org/2000/svg"
     width="2.11111in" height="0.577778in"
     viewBox="0 0 190 52">
  <path id="Imported Path #30"
        fill="#3c8758"
        d="M 26.00,0.44
           C 11.80,0.44 0.30,11.91 0.30,26.06
             0.30,40.22 11.80,51.69 26.00,51.69
             40.20,51.69 51.70,40.22 51.70,26.06
             51.70,12.01 40.20,0.54 26.00,0.44 Z
           M 8.90,14.10
           C 8.90,14.10 8.90,14.10 8.90,14.10
             7.60,10.91 11.00,6.62 16.50,4.63
             17.40,4.33 18.20,4.03 19.10,3.93
             19.10,3.93 23.90,15.10 23.90,15.10
             23.00,15.60 22.20,15.99 21.20,16.29
             15.70,18.39 10.20,17.39 8.90,14.10 Z
           M 22.50,23.97
           C 22.30,26.36 20.30,28.16 17.90,28.06
             15.60,27.86 13.80,25.96 13.80,23.67
             13.80,22.97 14.00,22.37 14.20,21.78
             14.20,21.78 22.50,23.97 22.50,23.97 Z
           M 14.90,20.78
           C 16.50,18.99 19.20,18.79 21.00,20.38
             21.70,20.98 22.20,21.88 22.40,22.77
             22.40,22.77 14.90,20.78 14.90,20.78 Z
           M 19.80,45.80
           C 19.60,46.70 19.30,47.60 18.90,48.50
             17.70,48.10 16.60,47.70 15.50,47.10
             15.40,46.20 15.30,45.31 15.30,44.31
             15.20,43.41 15.20,42.51 15.30,41.62
             16.20,42.31 17.20,42.71 18.40,42.71
             19.10,42.71 19.70,42.51 20.40,42.31
             20.20,43.61 20.10,44.71 19.80,45.80 Z
           M 18.30,41.82
           C 14.90,41.82 12.20,36.53 12.20,30.15
             12.20,30.15 12.20,30.15 12.20,30.15
             12.20,28.26 12.40,26.46 13.00,24.67
             13.00,24.77 13.00,24.77 13.00,24.87
             13.70,27.76 16.60,29.55 19.50,28.95
             21.70,28.46 23.30,26.66 23.60,24.47
             24.20,26.36 24.50,28.36 24.50,30.45
             24.40,36.73 21.70,41.82 18.30,41.82 Z
           M 25.10,14.40
           C 25.10,14.40 20.60,3.73 20.60,3.73
             24.50,3.33 27.90,4.53 28.90,6.92
             29.80,9.31 28.20,12.21 25.10,14.40 Z
           M 32.50,48.70
           C 34.60,43.41 35.60,37.73 35.50,32.05
             35.10,20.58 30.10,15.60 29.60,15.10
             32.00,13.80 33.80,11.71 34.90,9.21
             35.00,8.92 35.10,8.62 35.10,8.42
             35.30,7.42 35.20,6.32 34.90,5.43
             34.70,4.93 34.50,4.43 34.30,4.03
             34.30,4.03 34.30,4.03 34.30,4.03
             34.30,4.03 34.30,4.03 34.30,4.03
             34.30,4.03 34.30,4.03 34.30,4.03
             46.50,8.62 52.70,22.18 48.10,34.44
             45.50,41.32 39.70,46.70 32.50,48.70 Z
           M 75.30,3.13
           C 75.30,3.13 75.30,7.82 75.30,7.82
             75.30,7.82 79.80,3.13 79.80,3.13
             79.80,3.13 82.90,3.13 82.90,3.13
             82.90,3.13 78.40,7.62 78.40,7.62
             78.40,7.62 83.30,14.50 83.30,14.50
             83.30,14.50 80.10,14.50 80.10,14.50
             80.10,14.50 76.70,9.41 76.70,9.41
             76.70,9.41 75.30,10.91 75.30,10.91
             75.30,10.91 75.30,14.50 75.30,14.50
             75.30,14.50 72.80,14.50 72.80,14.50
             72.80,14.50 72.80,3.13 72.80,3.13
             72.80,3.13 75.30,3.13 75.30,3.13 Z
           M 86.50,3.13
           C 86.50,3.13 86.50,14.50 86.50,14.50
             86.50,14.50 84.20,14.50 84.20,14.50
             84.20,14.50 84.20,3.13 84.20,3.13
             84.20,3.13 86.50,3.13 86.50,3.13 Z
           M 88.30,4.93
           C 88.30,4.93 88.30,3.03 88.30,3.03
             88.30,3.03 90.60,3.03 90.60,3.03
             90.60,3.03 90.60,4.93 90.60,4.93
             90.60,4.93 88.30,4.93 88.30,4.93 Z
           M 90.60,6.22
           C 90.60,6.22 90.60,14.50 90.60,14.50
             90.60,14.50 88.30,14.50 88.30,14.50
             88.30,14.50 88.30,6.22 88.30,6.22
             88.30,6.22 90.60,6.22 90.60,6.22 Z
           M 94.50,6.22
           C 94.50,6.22 94.50,7.42 94.50,7.42
             94.50,7.42 94.50,7.42 94.50,7.42
             94.80,6.92 95.20,6.62 95.60,6.42
             96.10,6.22 96.50,6.12 97.00,6.12
             97.60,6.12 98.10,6.22 98.50,6.32
             98.90,6.52 99.20,6.72 99.40,7.02
             99.60,7.32 99.80,7.72 99.90,8.12
             100.00,8.52 100.00,9.02 100.00,9.51
             100.00,9.51 100.00,14.50 100.00,14.50
             100.00,14.50 97.70,14.50 97.70,14.50
             97.70,14.50 97.70,9.81 97.70,9.81
             97.70,9.12 97.60,8.62 97.40,8.32
             97.20,8.02 96.80,7.82 96.30,7.82
             95.70,7.82 95.20,8.02 95.00,8.42
             94.70,8.82 94.60,9.41 94.60,10.21
             94.60,10.21 94.60,14.50 94.60,14.50
             94.60,14.50 92.30,14.50 92.30,14.50
             92.30,14.50 92.30,6.22 92.30,6.22
             92.30,6.22 94.50,6.22 94.50,6.22 Z
           M 101.90,4.93
           C 101.90,4.93 101.90,3.03 101.90,3.03
             101.90,3.03 104.20,3.03 104.20,3.03
             104.20,3.03 104.20,4.93 104.20,4.93
             104.20,4.93 101.90,4.93 101.90,4.93 Z
           M 104.20,6.22
           C 104.20,6.22 104.20,14.50 104.20,14.50
             104.20,14.50 101.90,14.50 101.90,14.50
             101.90,14.50 101.90,6.22 101.90,6.22
             101.90,6.22 104.20,6.22 104.20,6.22 Z
           M 108.50,3.13
           C 108.50,3.13 108.50,9.21 108.50,9.21
             108.50,9.21 111.40,6.22 111.40,6.22
             111.40,6.22 114.10,6.22 114.10,6.22
             114.10,6.22 111.00,9.21 111.00,9.21
             111.00,9.21 114.50,14.40 114.50,14.40
             114.50,14.40 111.70,14.40 111.70,14.40
             111.70,14.40 109.40,10.71 109.40,10.71
             109.40,10.71 108.50,11.51 108.50,11.51
             108.50,11.51 108.50,14.50 108.50,14.50
             108.50,14.50 106.20,14.50 106.20,14.50
             106.20,14.50 106.20,3.13 106.20,3.13
             106.20,3.13 108.50,3.13 108.50,3.13 Z
           M 74.70,27.66
           C 74.80,27.96 75.00,28.16 75.30,28.26
             75.50,28.46 75.80,28.56 76.10,28.66
             76.40,28.76 76.70,28.76 77.10,28.76
             77.30,28.76 77.60,28.76 77.80,28.66
             78.10,28.66 78.30,28.56 78.50,28.46
             78.70,28.36 78.90,28.16 79.10,28.06
             79.20,27.86 79.30,27.66 79.30,27.36
             79.30,27.06 79.20,26.76 79.00,26.56
             78.80,26.36 78.50,26.16 78.20,26.06
             77.90,25.96 77.50,25.86 77.10,25.76
             76.70,25.66 76.30,25.57 75.90,25.47
             75.50,25.37 75.10,25.27 74.70,25.07
             74.30,24.87 73.90,24.67 73.60,24.47
             73.30,24.27 73.00,23.87 72.80,23.57
             72.60,23.27 72.50,22.77 72.50,22.28
             72.50,21.68 72.60,21.18 72.90,20.78
             73.20,20.38 73.50,19.98 73.90,19.68
             74.30,19.38 74.80,19.18 75.30,19.08
             75.80,18.99 76.30,18.89 76.80,18.89
             77.40,18.89 78.00,18.99 78.50,19.08
             79.00,19.18 79.50,19.38 80.00,19.68
             80.40,19.98 80.80,20.38 81.00,20.78
             81.30,21.28 81.40,21.78 81.40,22.47
             81.40,22.47 79.00,22.47 79.00,22.47
             79.00,22.18 78.90,21.88 78.80,21.68
             78.70,21.48 78.50,21.28 78.30,21.18
             78.10,21.08 77.90,20.98 77.60,20.88
             77.30,20.78 77.10,20.78 76.70,20.78
             76.50,20.78 76.30,20.78 76.10,20.88
             75.90,20.88 75.70,20.98 75.50,21.08
             75.30,21.18 75.20,21.28 75.10,21.48
             75.00,21.68 74.90,21.88 74.90,22.08
             74.90,22.28 74.90,22.47 75.00,22.57
             75.10,22.67 75.30,22.87 75.50,22.97
             75.80,23.07 76.10,23.17 76.50,23.37
             76.90,23.47 77.50,23.67 78.20,23.77
             78.40,23.77 78.70,23.87 79.10,23.97
             79.50,24.07 79.90,24.27 80.20,24.47
             80.60,24.67 80.90,25.07 81.20,25.47
             81.50,25.86 81.60,26.36 81.60,27.06
             81.60,27.56 81.50,28.06 81.30,28.56
             81.10,28.95 80.80,29.35 80.40,29.75
             80.00,30.05 79.50,30.35 78.90,30.55
             78.30,30.75 77.60,30.85 76.80,30.85
             76.20,30.85 75.60,30.75 75.00,30.65
             74.40,30.45 73.90,30.25 73.40,29.95
             73.10,29.45 72.70,28.95 72.50,28.46
             72.20,27.96 72.10,27.36 72.10,26.66
             72.10,26.66 74.50,26.66 74.50,26.66
             74.50,27.06 74.60,27.36 74.70,27.66 Z
           M 82.90,24.77
           C 82.90,24.27 83.10,23.77 83.30,23.47
             83.50,23.07 83.80,22.87 84.20,22.67
             84.60,22.47 85.00,22.28 85.40,22.18
             85.90,22.08 86.30,22.08 86.80,22.08
             87.20,22.08 87.60,22.08 88.10,22.18
             88.60,22.28 88.90,22.37 89.30,22.47
             89.70,22.67 89.90,22.87 90.20,23.17
             90.40,23.47 90.50,23.87 90.50,24.37
             90.50,24.37 90.50,28.66 90.50,28.66
             90.50,29.05 90.50,29.35 90.60,29.75
             90.60,30.05 90.70,30.35 90.80,30.55
             90.80,30.55 88.50,30.55 88.50,30.55
             88.50,30.45 88.40,30.25 88.40,30.15
             88.40,30.05 88.40,29.85 88.30,29.75
             87.90,30.15 87.50,30.35 87.00,30.55
             86.50,30.65 86.00,30.75 85.50,30.75
             85.10,30.75 84.70,30.75 84.40,30.65
             84.10,30.55 83.80,30.45 83.50,30.25
             83.20,30.05 83.00,29.75 82.90,29.45
             82.80,29.15 82.70,28.76 82.70,28.36
             82.70,27.86 82.80,27.46 82.90,27.16
             83.10,26.86 83.30,26.66 83.50,26.46
             83.80,26.26 84.10,26.16 84.40,26.06
             84.70,25.96 85.10,25.86 85.40,25.86
             85.70,25.76 86.10,25.76 86.40,25.76
             86.70,25.76 87.00,25.66 87.30,25.66
             87.60,25.57 87.80,25.47 87.90,25.37
             88.00,25.27 88.10,25.07 88.10,24.87
             88.10,24.67 88.10,24.47 88.00,24.27
             87.90,24.17 87.80,23.97 87.70,23.97
             87.60,23.87 87.40,23.87 87.20,23.77
             87.00,23.77 86.80,23.77 86.60,23.77
             86.20,23.77 85.80,23.87 85.50,24.07
             85.20,24.27 85.10,24.57 85.10,25.07
             85.10,25.07 82.90,25.07 82.90,25.07
             82.90,25.07 82.90,24.77 82.90,24.77 Z
           M 88.10,26.46
           C 88.00,26.56 87.90,26.66 87.70,26.66
             87.60,26.66 87.40,26.76 87.20,26.76
             87.00,26.76 86.90,26.86 86.70,26.86
             86.50,26.86 86.30,26.86 86.20,26.96
             86.00,26.96 85.90,27.06 85.70,27.06
             85.50,27.16 85.40,27.16 85.30,27.26
             85.20,27.36 85.10,27.46 85.00,27.56
             84.90,27.66 84.90,27.86 84.90,28.06
             84.90,28.26 84.90,28.46 85.00,28.56
             85.10,28.66 85.20,28.76 85.30,28.86
             85.40,28.95 85.60,28.95 85.70,29.05
             85.90,29.05 86.00,29.05 86.20,29.05
             86.60,29.05 87.00,28.95 87.20,28.86
             87.40,28.76 87.60,28.56 87.70,28.36
             87.80,28.16 87.90,27.96 87.90,27.76
             87.90,27.56 87.90,27.36 87.90,27.26
             87.90,27.26 87.90,26.46 87.90,26.46
             87.90,26.46 88.10,26.46 88.10,26.46 Z
           M 94.30,22.18
           C 94.30,22.18 94.30,23.37 94.30,23.37
             94.30,23.37 94.30,23.37 94.30,23.37
             94.60,22.87 95.00,22.57 95.40,22.37
             95.90,22.18 96.30,22.08 96.80,22.08
             97.40,22.08 97.90,22.18 98.30,22.28
             98.70,22.47 99.00,22.67 99.20,22.97
             99.40,23.27 99.60,23.67 99.70,24.07
             99.80,24.47 99.80,24.97 99.80,25.47
             99.80,25.47 99.80,30.45 99.80,30.45
             99.80,30.45 97.50,30.45 97.50,30.45
             97.50,30.45 97.50,25.76 97.50,25.76
             97.50,25.07 97.40,24.57 97.20,24.27
             97.00,23.97 96.60,23.77 96.10,23.77
             95.50,23.77 95.00,23.97 94.80,24.37
             94.50,24.77 94.40,25.37 94.40,26.16
             94.40,26.16 94.40,30.45 94.40,30.45
             94.40,30.45 92.10,30.45 92.10,30.45
             92.10,30.45 92.10,22.18 92.10,22.18
             92.10,22.18 94.30,22.18 94.30,22.18 Z
           M 104.10,19.08
           C 104.10,19.08 104.10,25.17 104.10,25.17
             104.10,25.17 107.00,22.18 107.00,22.18
             107.00,22.18 109.70,22.18 109.70,22.18
             109.70,22.18 106.60,25.17 106.60,25.17
             106.60,25.17 110.10,30.35 110.10,30.35
             110.10,30.35 107.30,30.35 107.30,30.35
             107.30,30.35 105.00,26.66 105.00,26.66
             105.00,26.66 104.10,27.46 104.10,27.46
             104.10,27.46 104.10,30.45 104.10,30.45
             104.10,30.45 101.80,30.45 101.80,30.45
             101.80,30.45 101.80,19.08 101.80,19.08
             101.80,19.08 104.10,19.08 104.10,19.08 Z
           M 115.30,22.18
           C 115.30,22.18 115.30,23.67 115.30,23.67
             115.30,23.67 113.70,23.67 113.70,23.67
             113.70,23.67 113.70,27.76 113.70,27.76
             113.70,28.16 113.80,28.36 113.90,28.56
             114.00,28.66 114.30,28.76 114.70,28.76
             114.80,28.76 114.90,28.76 115.10,28.76
             115.20,28.76 115.30,28.76 115.40,28.76
             115.40,28.76 115.40,30.45 115.40,30.45
             115.20,30.45 115.00,30.55 114.80,30.55
             114.60,30.55 114.30,30.55 114.10,30.55
             113.70,30.55 113.40,30.55 113.10,30.45
             112.80,30.45 112.50,30.35 112.30,30.15
             112.10,30.05 111.90,29.85 111.70,29.55
             111.60,29.25 111.50,28.95 111.50,28.56
             111.50,28.56 111.50,23.67 111.50,23.67
             111.50,23.67 110.10,23.67 110.10,23.67
             110.10,23.67 110.10,22.18 110.10,22.18
             110.10,22.18 111.50,22.18 111.50,22.18
             111.50,22.18 111.50,19.68 111.50,19.68
             111.50,19.68 113.80,19.68 113.80,19.68
             113.80,19.68 113.80,22.18 113.80,22.18
             113.80,22.18 115.30,22.18 115.30,22.18
             115.30,22.18 115.30,22.18 115.30,22.18 Z
           M 129.70,19.08
           C 129.70,19.08 129.70,21.18 129.70,21.18
             129.70,21.18 123.70,21.18 123.70,21.18
             123.70,21.18 123.70,23.57 123.70,23.57
             123.70,23.57 129.20,23.57 129.20,23.57
             129.20,23.57 129.20,25.57 129.20,25.57
             129.20,25.57 123.70,25.57 123.70,25.57
             123.70,25.57 123.70,28.36 123.70,28.36
             123.70,28.36 129.90,28.36 129.90,28.36
             129.90,28.36 129.90,30.45 129.90,30.45
             129.90,30.45 121.20,30.45 121.20,30.45
             121.20,30.45 121.20,19.08 121.20,19.08
             121.20,19.08 129.70,19.08 129.70,19.08 Z
           M 133.60,19.08
           C 133.60,19.08 133.60,30.45 133.60,30.45
             133.60,30.45 131.30,30.45 131.30,30.45
             131.30,30.45 131.30,19.08 131.30,19.08
             131.30,19.08 133.60,19.08 133.60,19.08 Z
           M 135.40,20.88
           C 135.40,20.88 135.40,18.99 135.40,18.99
             135.40,18.99 137.70,18.99 137.70,18.99
             137.70,18.99 137.70,20.88 137.70,20.88
             137.70,20.88 135.40,20.88 135.40,20.88 Z
           M 137.70,22.18
           C 137.70,22.18 137.70,30.45 137.70,30.45
             137.70,30.45 135.40,30.45 135.40,30.45
             135.40,30.45 135.40,22.18 135.40,22.18
             135.40,22.18 137.70,22.18 137.70,22.18 Z
           M 141.40,28.36
           C 141.50,28.56 141.60,28.66 141.80,28.76
             142.00,28.86 142.10,28.95 142.40,28.95
             142.70,28.95 142.80,29.05 143.00,29.05
             143.20,29.05 143.30,29.05 143.50,28.95
             143.70,28.95 143.80,28.86 144.00,28.76
             144.20,28.66 144.30,28.56 144.40,28.46
             144.50,28.36 144.50,28.16 144.50,27.96
             144.50,27.66 144.30,27.36 143.80,27.16
             143.30,26.96 142.70,26.86 141.90,26.66
             141.60,26.56 141.20,26.46 140.90,26.36
             140.60,26.26 140.30,26.16 140.10,25.96
             139.90,25.76 139.70,25.57 139.50,25.37
             139.40,25.07 139.30,24.77 139.30,24.47
             139.30,23.97 139.40,23.47 139.60,23.17
             139.80,22.87 140.10,22.57 140.40,22.37
             140.70,22.18 141.10,22.08 141.60,21.98
             142.10,21.88 142.50,21.88 142.90,21.88
             143.30,21.88 143.80,21.88 144.20,21.98
             144.60,22.08 145.00,22.18 145.30,22.37
             145.60,22.57 145.90,22.87 146.10,23.17
             146.30,23.47 146.40,23.97 146.50,24.47
             146.50,24.47 144.30,24.47 144.30,24.47
             144.30,24.07 144.10,23.77 143.80,23.57
             143.50,23.37 143.10,23.37 142.70,23.37
             142.60,23.37 142.40,23.37 142.30,23.37
             142.20,23.37 142.00,23.47 141.90,23.47
             141.80,23.57 141.70,23.57 141.60,23.67
             141.50,23.77 141.50,23.87 141.50,24.07
             141.50,24.27 141.60,24.47 141.70,24.57
             141.80,24.67 142.00,24.77 142.30,24.87
             142.50,24.97 142.80,25.07 143.10,25.07
             143.40,25.17 143.70,25.17 144.00,25.27
             144.30,25.37 144.70,25.47 145.00,25.57
             145.30,25.66 145.60,25.76 145.80,25.96
             146.00,26.16 146.20,26.36 146.40,26.66
             146.50,26.96 146.60,27.26 146.60,27.66
             146.60,28.16 146.50,28.66 146.30,29.05
             146.10,29.45 145.80,29.75 145.40,29.95
             145.00,30.15 144.60,30.35 144.20,30.45
             143.70,30.55 143.30,30.55 142.80,30.55
             142.30,30.55 141.90,30.55 141.40,30.45
             140.90,30.35 140.50,30.15 140.20,29.95
             139.80,29.75 139.50,29.45 139.30,29.05
             139.10,28.66 138.90,28.26 138.90,27.66
             138.90,27.66 141.10,27.66 141.10,27.66
             141.30,28.06 141.30,28.26 141.40,28.36 Z
           M 148.00,24.77
           C 148.00,24.27 148.20,23.77 148.40,23.47
             148.60,23.07 148.90,22.87 149.30,22.67
             149.70,22.47 150.10,22.28 150.50,22.18
             151.00,22.08 151.40,22.08 151.90,22.08
             152.30,22.08 152.70,22.08 153.20,22.18
             153.60,22.28 154.00,22.37 154.40,22.47
             154.80,22.67 155.00,22.87 155.30,23.17
             155.50,23.47 155.60,23.87 155.60,24.37
             155.60,24.37 155.60,28.66 155.60,28.66
             155.60,29.05 155.60,29.35 155.70,29.75
             155.70,30.05 155.80,30.35 155.90,30.55
             155.90,30.55 153.60,30.55 153.60,30.55
             153.60,30.45 153.50,30.25 153.50,30.15
             153.50,30.05 153.50,29.85 153.40,29.75
             153.00,30.15 152.60,30.35 152.10,30.55
             151.60,30.65 151.10,30.75 150.60,30.75
             150.20,30.75 149.80,30.75 149.50,30.65
             149.20,30.55 148.90,30.45 148.60,30.25
             148.30,30.05 148.10,29.75 148.00,29.45
             147.90,29.15 147.80,28.76 147.80,28.36
             147.80,27.86 147.90,27.46 148.00,27.16
             148.20,26.86 148.40,26.66 148.60,26.46
             148.90,26.26 149.20,26.16 149.50,26.06
             149.80,25.96 150.20,25.86 150.50,25.86
             150.80,25.76 151.20,25.76 151.50,25.76
             151.80,25.76 152.10,25.66 152.40,25.66
             152.70,25.57 152.90,25.47 153.00,25.37
             153.10,25.27 153.20,25.07 153.20,24.87
             153.20,24.67 153.20,24.47 153.10,24.27
             153.00,24.17 152.90,23.97 152.80,23.97
             152.70,23.87 152.50,23.87 152.30,23.77
             152.10,23.77 151.90,23.77 151.70,23.77
             151.30,23.77 150.90,23.87 150.60,24.07
             150.30,24.27 150.20,24.57 150.20,25.07
             150.20,25.07 148.00,25.07 148.00,25.07
             148.00,25.07 148.00,24.77 148.00,24.77 Z
           M 153.30,26.46
           C 153.20,26.56 153.10,26.66 152.90,26.66
             152.80,26.66 152.60,26.76 152.40,26.76
             152.20,26.76 152.10,26.86 151.90,26.86
             151.70,26.86 151.50,26.86 151.40,26.96
             151.20,26.96 151.10,27.06 150.90,27.06
             150.70,27.16 150.60,27.16 150.50,27.26
             150.40,27.36 150.30,27.46 150.20,27.56
             150.10,27.66 150.10,27.86 150.10,28.06
             150.10,28.26 150.10,28.46 150.20,28.56
             150.30,28.66 150.40,28.76 150.50,28.86
             150.60,28.95 150.80,28.95 150.90,29.05
             151.00,29.15 151.20,29.05 151.40,29.05
             151.80,29.05 152.20,28.95 152.40,28.86
             152.60,28.76 152.80,28.56 152.90,28.36
             153.00,28.16 153.10,27.96 153.10,27.76
             153.10,27.56 153.10,27.36 153.10,27.26
             153.10,27.26 153.10,26.46 153.10,26.46
             153.10,26.46 153.30,26.46 153.30,26.46 Z
           M 159.60,19.08
           C 159.60,19.08 159.60,23.27 159.60,23.27
             159.60,23.27 159.60,23.27 159.60,23.27
             159.90,22.87 160.30,22.57 160.70,22.37
             161.10,22.18 161.70,22.08 162.20,22.08
             162.60,22.08 163.00,22.18 163.40,22.37
             163.80,22.57 164.20,22.77 164.50,23.17
             164.80,23.57 165.10,23.97 165.30,24.57
             165.50,25.07 165.60,25.76 165.60,26.56
             165.60,27.36 165.50,27.96 165.30,28.56
             165.10,29.05 164.80,29.55 164.50,29.95
             164.20,30.35 163.80,30.55 163.40,30.75
             163.00,30.95 162.60,31.05 162.20,31.05
             161.60,31.05 161.00,30.95 160.60,30.75
             160.10,30.55 159.80,30.25 159.50,29.75
             159.50,29.75 159.50,29.75 159.50,29.75
             159.50,29.75 159.50,30.45 159.50,30.45
             159.50,30.45 157.30,30.45 157.30,30.45
             157.30,30.45 157.30,19.08 157.30,19.08
             157.30,19.08 159.60,19.08 159.60,19.08 Z
           M 163.20,25.37
           C 163.10,25.07 163.00,24.77 162.80,24.57
             162.60,24.37 162.40,24.17 162.20,23.97
             162.00,23.87 161.70,23.77 161.30,23.77
             161.00,23.77 160.70,23.87 160.40,23.97
             160.20,24.07 160.00,24.27 159.80,24.57
             159.60,24.77 159.50,25.07 159.40,25.37
             159.30,25.66 159.30,26.06 159.30,26.36
             159.30,26.66 159.30,27.06 159.40,27.36
             159.50,27.66 159.60,27.96 159.80,28.16
             160.00,28.36 160.20,28.56 160.40,28.76
             160.60,28.86 160.90,28.95 161.30,28.95
             161.60,28.95 161.90,28.86 162.20,28.76
             162.40,28.66 162.60,28.46 162.80,28.16
             163.00,27.96 163.10,27.66 163.20,27.36
             163.30,27.06 163.30,26.76 163.30,26.36
             163.30,25.96 163.30,25.66 163.20,25.37 Z
           M 169.50,28.46
           C 169.80,28.76 170.30,28.95 171.00,28.95
             171.50,28.95 171.90,28.86 172.20,28.66
             172.50,28.46 172.70,28.16 172.80,27.96
             172.80,27.96 174.80,27.96 174.80,27.96
             174.50,28.95 174.00,29.65 173.30,30.05
             172.60,30.45 171.80,30.65 170.90,30.65
             170.20,30.65 169.70,30.55 169.10,30.35
             168.60,30.15 168.10,29.85 167.80,29.45
             167.40,29.05 167.20,28.66 167.00,28.06
             166.80,27.46 166.70,26.96 166.70,26.26
             166.70,25.66 166.80,25.07 167.00,24.57
             167.20,24.07 167.50,23.57 167.90,23.17
             168.30,22.77 168.70,22.47 169.20,22.28
             169.70,22.08 170.30,21.98 170.90,21.98
             171.60,21.98 172.20,22.08 172.70,22.37
             173.20,22.67 173.70,22.97 174.00,23.47
             174.30,23.97 174.60,24.47 174.70,25.07
             174.80,25.66 174.90,26.26 174.90,26.86
             174.90,26.86 168.90,26.86 168.90,26.86
             169.00,27.66 169.10,28.16 169.50,28.46 Z
           M 172.10,24.17
           C 171.80,23.87 171.40,23.77 170.90,23.77
             170.50,23.77 170.20,23.87 170.00,23.97
             169.80,24.07 169.60,24.27 169.40,24.47
             169.30,24.67 169.20,24.87 169.10,25.07
             169.00,25.27 169.00,25.47 169.00,25.57
             169.00,25.57 172.70,25.57 172.70,25.57
             172.50,24.87 172.30,24.47 172.10,24.17 Z
           M 180.80,22.18
           C 180.80,22.18 180.80,23.67 180.80,23.67
             180.80,23.67 179.10,23.67 179.10,23.67
             179.10,23.67 179.10,27.76 179.10,27.76
             179.10,28.16 179.20,28.36 179.30,28.56
             179.40,28.76 179.70,28.76 180.10,28.76
             180.20,28.76 180.30,28.76 180.50,28.76
             180.70,28.76 180.70,28.76 180.80,28.76
             180.80,28.76 180.80,30.45 180.80,30.45
             180.60,30.45 180.40,30.55 180.20,30.55
             180.00,30.55 179.70,30.55 179.50,30.55
             179.10,30.55 178.80,30.55 178.50,30.45
             178.20,30.35 177.90,30.35 177.70,30.15
             177.50,30.05 177.30,29.85 177.10,29.55
             177.00,29.25 176.90,28.95 176.90,28.56
             176.90,28.56 176.90,23.67 176.90,23.67
             176.90,23.67 175.50,23.67 175.50,23.67
             175.50,23.67 175.50,22.18 175.50,22.18
             175.50,22.18 176.90,22.18 176.90,22.18
             176.90,22.18 176.90,19.68 176.90,19.68
             176.90,19.68 179.20,19.68 179.20,19.68
             179.20,19.68 179.20,22.18 179.20,22.18
             179.20,22.18 180.80,22.18 180.80,22.18
             180.80,22.18 180.80,22.18 180.80,22.18 Z
           M 184.10,19.08
           C 184.10,19.08 184.10,23.37 184.10,23.37
             184.10,23.37 184.10,23.37 184.10,23.37
             184.40,22.87 184.80,22.57 185.20,22.37
             185.60,22.18 186.10,22.08 186.50,22.08
             187.10,22.08 187.60,22.18 188.00,22.28
             188.40,22.47 188.70,22.67 188.90,22.97
             189.10,23.27 189.30,23.67 189.40,24.07
             189.50,24.47 189.50,24.97 189.50,25.47
             189.50,25.47 189.50,30.45 189.50,30.45
             189.50,30.45 187.20,30.45 187.20,30.45
             187.20,30.45 187.20,25.76 187.20,25.76
             187.20,25.07 187.10,24.57 186.90,24.27
             186.70,23.97 186.30,23.77 185.80,23.77
             185.20,23.77 184.70,23.97 184.50,24.37
             184.20,24.77 184.10,25.37 184.10,26.16
             184.10,26.16 184.10,30.45 184.10,30.45
             184.10,30.45 181.80,30.45 181.80,30.45
             181.80,30.45 181.80,19.08 181.80,19.08
             181.80,19.08 184.10,19.08 184.10,19.08 Z
           M 74.50,35.04
           C 74.50,35.04 74.50,39.92 74.50,39.92
             74.50,39.92 80.50,39.92 80.50,39.92
             80.50,39.92 80.50,35.04 80.50,35.04
             80.50,35.04 82.00,35.04 82.00,35.04
             82.00,35.04 82.00,46.40 82.00,46.40
             82.00,46.40 80.50,46.40 80.50,46.40
             80.50,46.40 80.50,41.22 80.50,41.22
             80.50,41.22 74.50,41.22 74.50,41.22
             74.50,41.22 74.50,46.40 74.50,46.40
             74.50,46.40 73.00,46.40 73.00,46.40
             73.00,46.40 73.00,35.04 73.00,35.04
             73.00,35.04 74.50,35.04 74.50,35.04 Z
           M 90.10,45.90
           C 89.50,46.40 88.70,46.60 87.80,46.60
             87.10,46.60 86.60,46.50 86.10,46.30
             85.60,46.10 85.20,45.80 84.90,45.41
             84.60,45.01 84.30,44.61 84.20,44.01
             84.10,43.41 83.90,42.91 83.90,42.31
             83.90,41.72 84.00,41.12 84.20,40.62
             84.40,40.12 84.70,39.62 85.00,39.22
             85.30,38.83 85.80,38.53 86.20,38.33
             86.70,38.13 87.20,38.03 87.80,38.03
             88.50,38.03 89.10,38.23 89.60,38.53
             90.10,38.83 90.50,39.22 90.80,39.72
             91.10,40.22 91.30,40.72 91.40,41.22
             91.50,41.82 91.60,42.31 91.50,42.81
             91.50,42.81 85.30,42.81 85.30,42.81
             85.30,43.21 85.30,43.51 85.40,43.81
             85.50,44.11 85.70,44.41 85.90,44.71
             86.10,45.01 86.40,45.21 86.70,45.31
             87.00,45.50 87.40,45.50 87.90,45.50
             88.50,45.50 88.90,45.41 89.30,45.11
             89.70,44.81 89.90,44.41 90.00,43.91
             90.00,43.91 91.30,43.91 91.30,43.91
             91.20,44.71 90.80,45.41 90.10,45.90 Z
           M 89.80,40.62
           C 89.70,40.32 89.50,40.12 89.30,39.92
             89.10,39.72 88.80,39.52 88.60,39.42
             88.30,39.32 88.00,39.22 87.70,39.22
             87.30,39.22 87.00,39.32 86.70,39.42
             86.40,39.52 86.20,39.72 86.00,39.92
             85.80,40.12 85.60,40.42 85.50,40.62
             85.40,40.92 85.30,41.22 85.30,41.52
             85.30,41.52 90.10,41.52 90.10,41.52
             90.00,41.22 89.90,40.82 89.80,40.62 Z
           M 92.90,36.63
           C 92.90,36.63 92.90,34.94 92.90,34.94
             92.90,34.94 94.30,34.94 94.30,34.94
             94.30,34.94 94.30,36.63 94.30,36.63
             94.30,36.63 92.90,36.63 92.90,36.63 Z
           M 94.30,38.13
           C 94.30,38.13 94.30,46.40 94.30,46.40
             94.30,46.40 92.90,46.40 92.90,46.40
             92.90,46.40 92.90,38.13 92.90,38.13
             92.90,38.13 94.30,38.13 94.30,38.13 Z
           M 102.50,46.40
           C 102.50,46.40 102.50,45.31 102.50,45.31
             102.50,45.31 102.50,45.31 102.50,45.31
             102.30,45.80 101.90,46.10 101.40,46.30
             100.90,46.50 100.40,46.60 99.80,46.60
             99.20,46.60 98.60,46.50 98.10,46.20
             97.60,45.90 97.20,45.70 96.90,45.31
             96.60,44.91 96.30,44.41 96.20,43.91
             96.10,43.41 96.00,42.81 96.00,42.21
             96.00,41.62 96.10,41.12 96.20,40.52
             96.40,40.02 96.60,39.52 96.90,39.12
             97.20,38.73 97.60,38.43 98.10,38.23
             98.60,38.03 99.10,37.93 99.80,37.93
             100.00,37.93 100.20,37.93 100.50,38.03
             100.70,38.03 101.00,38.13 101.20,38.23
             101.40,38.33 101.70,38.43 101.90,38.63
             102.10,38.83 102.30,39.02 102.50,39.22
             102.50,39.22 102.50,39.22 102.50,39.22
             102.50,39.22 102.50,34.94 102.50,34.94
             102.50,34.94 103.90,34.94 103.90,34.94
             103.90,34.94 103.90,46.40 103.90,46.40
             103.90,46.40 102.50,46.40 102.50,46.40 Z
           M 97.60,43.51
           C 97.70,43.91 97.90,44.21 98.10,44.51
             98.30,44.81 98.60,45.01 98.90,45.21
             99.20,45.41 99.60,45.50 100.00,45.50
             100.50,45.50 100.80,45.41 101.20,45.21
             101.50,45.01 101.80,44.81 102.00,44.51
             102.20,44.21 102.30,43.91 102.40,43.51
             102.50,43.11 102.50,42.71 102.50,42.41
             102.50,42.02 102.50,41.62 102.40,41.22
             102.30,40.82 102.20,40.52 101.90,40.22
             101.60,39.92 101.40,39.72 101.10,39.52
             100.80,39.32 100.40,39.22 99.90,39.22
             99.40,39.22 99.10,39.32 98.70,39.52
             98.40,39.72 98.10,39.92 97.90,40.22
             97.70,40.52 97.60,40.82 97.50,41.22
             97.40,41.62 97.40,42.02 97.40,42.41
             97.40,42.71 97.50,43.11 97.60,43.51 Z
           M 111.80,45.90
           C 111.20,46.40 110.40,46.60 109.50,46.60
             108.80,46.60 108.30,46.50 107.80,46.30
             107.30,46.10 106.90,45.80 106.60,45.41
             106.30,45.01 106.00,44.61 105.90,44.01
             105.80,43.41 105.60,42.91 105.60,42.31
             105.60,41.72 105.70,41.12 105.90,40.62
             106.10,40.12 106.40,39.62 106.70,39.22
             107.00,38.83 107.50,38.53 107.90,38.33
             108.40,38.13 108.90,38.03 109.50,38.03
             110.20,38.03 110.80,38.23 111.30,38.53
             111.80,38.83 112.20,39.22 112.50,39.72
             112.80,40.22 113.00,40.72 113.10,41.22
             113.20,41.72 113.30,42.31 113.20,42.81
             113.20,42.81 107.00,42.81 107.00,42.81
             107.00,43.21 107.00,43.51 107.10,43.81
             107.20,44.11 107.40,44.41 107.60,44.71
             107.80,45.01 108.10,45.21 108.40,45.31
             108.70,45.50 109.10,45.50 109.60,45.50
             110.20,45.50 110.60,45.41 111.00,45.11
             111.40,44.81 111.60,44.41 111.70,43.91
             111.70,43.91 113.00,43.91 113.00,43.91
             112.80,44.71 112.40,45.41 111.80,45.90 Z
           M 111.40,40.62
           C 111.30,40.32 111.10,40.12 110.90,39.92
             110.70,39.72 110.40,39.52 110.20,39.42
             109.90,39.32 109.60,39.22 109.30,39.22
             108.90,39.22 108.60,39.32 108.30,39.42
             108.00,39.52 107.80,39.72 107.60,39.92
             107.40,40.12 107.20,40.42 107.10,40.62
             107.00,40.92 106.90,41.22 106.90,41.52
             106.90,41.52 111.70,41.52 111.70,41.52
             111.60,41.22 111.60,40.82 111.40,40.62 Z
           M 115.90,35.04
           C 115.90,35.04 115.90,46.40 115.90,46.40
             115.90,46.40 114.50,46.40 114.50,46.40
             114.50,46.40 114.50,35.04 114.50,35.04
             114.50,35.04 115.90,35.04 115.90,35.04 Z
           M 119.50,35.04
           C 119.50,35.04 119.50,39.32 119.50,39.32
             119.50,39.32 119.50,39.32 119.50,39.32
             119.70,38.83 120.10,38.53 120.60,38.33
             121.10,38.13 121.60,38.03 122.20,38.03
             122.80,38.03 123.40,38.13 123.90,38.43
             124.40,38.63 124.80,39.02 125.10,39.42
             125.40,39.82 125.70,40.32 125.80,40.82
             126.00,41.32 126.00,41.92 126.00,42.51
             126.00,43.11 125.90,43.61 125.80,44.21
             125.60,44.71 125.40,45.21 125.10,45.60
             124.80,46.00 124.40,46.30 123.90,46.50
             123.40,46.70 122.90,46.80 122.20,46.80
             122.00,46.80 121.80,46.80 121.50,46.70
             121.20,46.70 121.00,46.60 120.80,46.50
             120.60,46.40 120.30,46.30 120.10,46.10
             119.90,45.90 119.70,45.70 119.50,45.50
             119.50,45.50 119.50,45.50 119.50,45.50
             119.50,45.50 119.50,46.40 119.50,46.40
             119.50,46.40 118.10,46.40 118.10,46.40
             118.10,46.40 118.10,35.04 118.10,35.04
             118.10,35.04 119.50,35.04 119.50,35.04 Z
           M 124.30,41.12
           C 124.20,40.72 124.00,40.42 123.80,40.12
             123.60,39.82 123.30,39.62 123.00,39.42
             122.70,39.22 122.30,39.12 121.90,39.12
             121.40,39.12 121.10,39.22 120.70,39.42
             120.40,39.62 120.10,39.82 119.90,40.12
             119.70,40.42 119.60,40.72 119.50,41.12
             119.40,41.52 119.40,41.92 119.40,42.21
             119.40,42.61 119.40,43.01 119.50,43.41
             119.60,43.81 119.70,44.11 120.00,44.41
             120.30,44.71 120.50,44.91 120.80,45.11
             121.10,45.31 121.50,45.41 122.00,45.41
             122.50,45.41 122.90,45.31 123.20,45.11
             123.50,44.91 123.80,44.71 124.00,44.41
             124.20,44.11 124.30,43.81 124.40,43.41
             124.50,43.01 124.50,42.61 124.50,42.21
             124.50,41.82 124.40,41.42 124.30,41.12 Z
           M 133.40,45.90
           C 132.80,46.40 132.00,46.60 131.10,46.60
             130.40,46.60 129.90,46.50 129.40,46.30
             128.90,46.10 128.50,45.80 128.20,45.41
             127.90,45.01 127.60,44.61 127.50,44.01
             127.30,43.51 127.20,42.91 127.20,42.31
             127.20,41.72 127.30,41.12 127.50,40.62
             127.70,40.12 128.00,39.62 128.30,39.22
             128.60,38.83 129.10,38.53 129.50,38.33
             130.00,38.13 130.50,38.03 131.10,38.03
             131.80,38.03 132.40,38.23 132.90,38.53
             133.40,38.83 133.80,39.22 134.10,39.72
             134.40,40.22 134.60,40.72 134.70,41.22
             134.80,41.82 134.90,42.31 134.80,42.81
             134.80,42.81 128.60,42.81 128.60,42.81
             128.60,43.21 128.60,43.51 128.70,43.81
             128.80,44.11 128.90,44.41 129.20,44.71
             129.40,45.01 129.70,45.21 130.00,45.31
             130.30,45.50 130.70,45.50 131.20,45.50
             131.80,45.50 132.20,45.41 132.60,45.11
             133.00,44.81 133.20,44.41 133.30,43.91
             133.30,43.91 134.60,43.91 134.60,43.91
             134.40,44.71 134.00,45.41 133.40,45.90 Z
           M 133.10,40.62
           C 133.00,40.32 132.80,40.12 132.60,39.92
             132.40,39.72 132.10,39.52 131.90,39.42
             131.60,39.32 131.30,39.22 131.00,39.22
             130.60,39.22 130.30,39.32 130.00,39.42
             129.70,39.52 129.50,39.72 129.30,39.92
             129.10,40.12 128.90,40.42 128.80,40.62
             128.70,40.92 128.60,41.22 128.60,41.52
             128.60,41.52 133.40,41.52 133.40,41.52
             133.30,41.22 133.20,40.82 133.10,40.62 Z
           M 137.40,38.13
           C 137.40,38.13 137.40,39.82 137.40,39.82
             137.40,39.82 137.40,39.82 137.40,39.82
             137.70,39.12 138.10,38.63 138.60,38.33
             139.10,38.03 139.70,37.83 140.40,37.93
             140.40,37.93 140.40,39.42 140.40,39.42
             139.90,39.42 139.40,39.52 139.00,39.62
             138.60,39.72 138.30,40.02 138.10,40.32
             137.90,40.62 137.70,40.92 137.60,41.32
             137.50,41.72 137.40,42.21 137.40,42.71
             137.40,42.71 137.40,46.40 137.40,46.40
             137.40,46.40 136.00,46.40 136.00,46.40
             136.00,46.40 136.00,38.13 136.00,38.13
             136.00,38.13 137.40,38.13 137.40,38.13 Z
           M 147.20,48.70
           C 146.60,49.39 145.60,49.69 144.30,49.69
             143.90,49.69 143.50,49.69 143.10,49.59
             142.70,49.49 142.30,49.39 142.00,49.19
             141.70,48.99 141.40,48.79 141.20,48.40
             141.00,48.00 140.90,47.70 140.80,47.30
             140.80,47.30 142.20,47.30 142.20,47.30
             142.20,47.50 142.30,47.80 142.40,47.90
             142.50,48.10 142.70,48.20 142.90,48.30
             143.10,48.40 143.30,48.50 143.60,48.50
             143.80,48.50 144.10,48.60 144.30,48.60
             144.70,48.60 145.10,48.50 145.40,48.40
             145.70,48.20 146.00,48.00 146.20,47.80
             146.40,47.50 146.50,47.20 146.60,46.80
             146.70,46.40 146.70,46.00 146.70,45.50
             146.70,45.50 146.70,45.01 146.70,45.01
             146.70,45.01 146.70,45.01 146.70,45.01
             146.50,45.50 146.10,45.90 145.60,46.10
             145.10,46.30 144.60,46.50 144.10,46.50
             143.50,46.50 142.90,46.40 142.50,46.20
             142.00,46.00 141.70,45.70 141.30,45.31
             141.00,44.91 140.80,44.51 140.60,44.01
             140.40,43.51 140.40,43.01 140.40,42.41
             140.40,41.92 140.50,41.42 140.60,40.92
             140.70,40.42 140.90,39.92 141.20,39.52
             141.50,39.12 141.90,38.73 142.40,38.53
             142.90,38.23 143.50,38.13 144.20,38.13
             144.70,38.13 145.20,38.23 145.60,38.43
             146.00,38.63 146.40,39.02 146.60,39.42
             146.60,39.42 146.60,39.42 146.60,39.42
             146.60,39.42 146.60,38.23 146.60,38.23
             146.60,38.23 147.90,38.23 147.90,38.23
             147.90,38.23 147.90,45.80 147.90,45.80
             148.10,47.10 147.80,48.10 147.20,48.70 Z
           M 145.50,45.01
           C 145.80,44.81 146.10,44.61 146.30,44.31
             146.50,44.01 146.60,43.71 146.70,43.31
             146.80,42.91 146.80,42.51 146.80,42.12
             146.80,41.72 146.80,41.42 146.70,41.02
             146.60,40.62 146.50,40.32 146.30,40.02
             146.10,39.72 145.90,39.52 145.60,39.32
             145.30,39.12 144.90,39.02 144.50,39.02
             144.10,39.02 143.70,39.12 143.40,39.22
             143.10,39.42 142.80,39.62 142.60,39.92
             142.40,40.22 142.30,40.52 142.20,40.92
             142.10,41.32 142.10,41.62 142.10,42.02
             142.10,42.41 142.10,42.71 142.20,43.11
             142.30,43.51 142.40,43.81 142.60,44.11
             142.80,44.41 143.00,44.61 143.30,44.81
             143.60,45.01 144.00,45.11 144.40,45.11
             144.80,45.31 145.20,45.21 145.50,45.01 Z" />
</svg>
