<?xml version="1.0" encoding="UTF-8" standalone="no"?>
<!DOCTYPE svg PUBLIC "-//W3C//DTD SVG 20010904//EN"
              "http://www.w3.org/TR/2001/REC-SVG-20010904/DTD/svg10.dtd">

<svg xmlns="http://www.w3.org/2000/svg"
     width="0.577778in" height="0.577778in"
     viewBox="0 0 52 52">
  <path id="Imported Path #31"
        fill="#3c8758"
        d="M 25.94,0.43
           C 11.74,0.43 0.24,11.89 0.24,26.05
             0.24,40.21 11.74,51.67 25.94,51.67
             40.14,51.67 51.64,40.21 51.64,26.05
             51.64,11.99 40.14,0.53 25.94,0.43 Z
           M 8.84,14.08
           C 8.84,14.08 8.84,14.08 8.84,14.08
             7.54,10.89 10.94,6.61 16.44,4.61
             17.34,4.31 18.14,4.02 19.04,3.92
             19.04,3.92 23.84,15.08 23.84,15.08
             22.94,15.58 22.14,15.98 21.14,16.28
             15.64,18.37 10.14,17.37 8.84,14.08 Z
           M 22.44,23.95
           C 22.24,26.35 20.24,28.14 17.84,28.04
             15.54,27.84 13.74,25.95 13.74,23.66
             13.74,22.96 13.94,22.36 14.14,21.76
             14.14,21.76 22.44,23.95 22.44,23.95 Z
           M 14.84,20.76
           C 16.44,18.97 19.14,18.77 20.94,20.37
             21.64,20.96 22.14,21.86 22.34,22.76
             22.34,22.76 14.84,20.76 14.84,20.76 Z
           M 19.74,45.79
           C 19.54,46.69 19.24,47.58 18.84,48.48
             17.64,48.08 16.54,47.68 15.44,47.08
             15.34,46.19 15.24,45.29 15.24,44.29
             15.14,43.40 15.14,42.50 15.24,41.60
             16.14,42.30 17.14,42.70 18.34,42.70
             19.04,42.70 19.64,42.50 20.34,42.30
             20.14,43.60 20.04,44.69 19.74,45.79 Z
           M 18.24,41.80
           C 14.84,41.80 12.14,36.52 12.14,30.14
             12.14,30.14 12.14,30.14 12.14,30.14
             12.14,28.24 12.34,26.45 12.94,24.65
             12.94,24.75 12.94,24.75 12.94,24.85
             13.64,27.74 16.54,29.54 19.44,28.94
             21.64,28.44 23.24,26.65 23.54,24.45
             24.14,26.35 24.44,28.34 24.44,30.44
             24.34,36.72 21.64,41.80 18.24,41.80 Z
           M 25.04,14.38
           C 25.04,14.38 20.54,3.72 20.54,3.72
             24.44,3.32 27.84,4.51 28.84,6.91
             29.74,9.30 28.14,12.19 25.04,14.38 Z
           M 32.44,48.68
           C 34.54,43.40 35.54,37.71 35.44,32.03
             35.04,20.57 30.04,15.58 29.54,15.08
             31.94,13.79 33.74,11.69 34.84,9.20
             34.94,8.90 35.04,8.60 35.04,8.40
             35.24,7.40 35.14,6.31 34.84,5.41
             34.64,4.91 34.44,4.41 34.24,4.02
             34.24,4.02 34.24,4.02 34.24,4.02
             34.24,4.02 34.24,4.02 34.24,4.02
             34.24,4.02 34.24,4.02 34.24,4.02
             46.44,8.60 52.64,22.16 48.04,34.42
             45.44,41.30 39.64,46.69 32.44,48.68 Z" />
</svg>
